<svg width="24" height="24" viewBox="0 0 24 24" fill="none" xmlns="http://www.w3.org/2000/svg">
<path d="M12.103 8.46737L8.3813 14.0902C8.11565 14.5057 8.024 15.009 8.12613 15.4914C8.22826 15.9738 8.51598 16.3968 8.9272 16.669C9.33842 16.9412 9.84016 17.0407 10.3242 16.9462C10.8082 16.8518 11.2356 16.5707 11.5142 16.1639L16.3975 8.79713C16.6344 8.44852 16.7997 8.05636 16.8839 7.64338C16.968 7.2304 16.9694 6.80482 16.8879 6.39131C16.8064 5.9778 16.6436 5.58458 16.409 5.23445C16.1743 4.88433 15.8726 4.58425 15.5211 4.35163C15.1696 4.119 14.7755 3.95845 14.3615 3.87929C13.9476 3.80012 13.522 3.80392 13.1095 3.89045C12.697 3.97698 12.3058 4.14453 11.9585 4.38338C11.6113 4.62223 11.3149 4.92764 11.0866 5.28189L6.17552 12.7017C5.84089 13.1917 5.607 13.7433 5.48746 14.3246C5.36792 14.9058 5.36512 15.505 5.47921 16.0873C5.5933 16.6696 5.82201 17.2234 6.15205 17.7165C6.48208 18.2097 6.90685 18.6323 7.40167 18.9598C7.89648 19.2873 8.45147 19.5132 9.03435 19.6243C9.61724 19.7354 10.2164 19.7295 10.797 19.607C11.3776 19.4845 11.9281 19.2478 12.4164 18.9107C12.9047 18.5736 13.3211 18.1427 13.6414 17.6432L18.2306 10.7097" stroke="#263238" stroke-width="1.5" stroke-miterlimit="10" stroke-linecap="round"/>
</svg>
