<svg width="17" height="18" viewBox="0 0 17 18" fill="none" xmlns="http://www.w3.org/2000/svg">
<path d="M5.99961 8.1H4.19961V9.9H5.99961V8.1ZM9.59961 8.1H7.79961V9.9H9.59961V8.1ZM13.1996 8.1H11.3996V9.9H13.1996V8.1ZM14.9996 1.8H14.0996V0H12.2996V1.8H5.09961V0H3.29961V1.8H2.39961C1.40061 1.8 0.608609 2.61 0.608609 3.6L0.599609 16.2C0.599609 17.19 1.40061 18 2.39961 18H14.9996C15.9896 18 16.7996 17.19 16.7996 16.2V3.6C16.7996 2.61 15.9896 1.8 14.9996 1.8ZM14.9996 16.2H2.39961V6.3H14.9996V16.2Z" fill="#162082"/>
</svg>
