<svg width="64" height="64" viewBox="0 0 64 64" fill="none" xmlns="http://www.w3.org/2000/svg">
<path d="M28.75 55.5C25.0324 55.4988 21.368 54.6157 18.058 52.9231C14.748 51.2305 11.8869 48.7767 9.70951 45.7634C7.53217 42.7501 6.10081 39.2631 5.53302 35.5891C4.96523 31.9151 5.27722 28.1587 6.44334 24.6287C7.60947 21.0987 9.59646 17.8957 12.2411 15.2828C14.8857 12.67 18.1125 10.7219 21.6564 9.59852C25.2002 8.47516 28.9601 8.20862 32.627 8.82079C36.2939 9.43297 39.7632 10.9064 42.75 13.12C43.1498 13.4448 43.4088 13.9113 43.4731 14.4224C43.5374 14.9334 43.4021 15.4496 43.0953 15.8633C42.7886 16.2771 42.334 16.5565 41.8263 16.6435C41.3186 16.7304 40.797 16.6181 40.37 16.33C36.8447 13.7127 32.5395 12.361 28.1508 12.4936C23.7621 12.6262 19.5464 14.2353 16.1855 17.0607C12.8246 19.8861 10.515 23.7625 9.63026 28.0632C8.74547 32.3638 9.33722 36.8372 11.3098 40.7599C13.2824 44.6825 16.5205 47.8251 20.5005 49.6794C24.4804 51.5338 28.9695 51.9914 33.2417 50.9783C37.514 49.9652 41.3196 47.5406 44.0431 44.0966C46.7666 40.6527 48.2488 36.3907 48.25 32C48.2471 30.9717 48.1636 29.9452 48 28.93C47.9593 28.6674 47.9707 28.3993 48.0336 28.141C48.0965 27.8828 48.2097 27.6395 48.3666 27.425C48.5235 27.2105 48.7212 27.029 48.9483 26.8909C49.1753 26.7528 49.4274 26.6607 49.69 26.62C49.9527 26.5793 50.2208 26.5907 50.479 26.6536C50.7372 26.7165 50.9805 26.8297 51.195 26.9866C51.4095 27.1435 51.591 27.3412 51.7291 27.5682C51.8673 27.7953 51.9593 28.0474 52 28.31C52.1787 29.5317 52.2623 30.7654 52.25 32C52.2447 38.231 49.7671 44.2052 45.3612 48.6112C40.9552 53.0171 34.981 55.4947 28.75 55.5Z" fill="#162082"/>
<path d="M31.2503 39.5003C30.7207 39.4981 30.2136 39.2859 29.8403 38.9103L20.3403 29.4103C20.0126 29.0277 19.8414 28.5355 19.8609 28.0322C19.8803 27.5288 20.089 27.0514 20.4452 26.6952C20.8014 26.339 21.2788 26.1303 21.7822 26.1109C22.2855 26.0914 22.7777 26.2626 23.1603 26.5903L31.2503 34.6703L55.3403 10.5903C55.7229 10.2626 56.215 10.0914 56.7184 10.1109C57.2217 10.1303 57.6992 10.339 58.0554 10.6952C58.4116 11.0514 58.6203 11.5288 58.6397 12.0322C58.6592 12.5355 58.4879 13.0277 58.1603 13.4103L32.6603 38.9103C32.2869 39.2859 31.7799 39.4981 31.2503 39.5003Z" fill="#089E17"/>
</svg>
