<svg width="111" height="111" viewBox="0 0 111 111" fill="none" xmlns="http://www.w3.org/2000/svg">
<g filter="url(#filter0_dii_13001_49744)">
<circle cx="52" cy="52" r="48" fill="#E7E7E7"/>
</g>
<path d="M52.4995 71.6296L61.0528 56.8149L43.9462 56.8149L52.4995 71.6296ZM51.018 42L51.018 58.2963L53.981 58.2963L53.981 42L51.018 42Z" fill="#222B88"/>
<rect x="35.833" y="75.6289" width="33.3332" height="4.44444" fill="#222B88"/>
<path d="M24.224 31C24.144 31 24.076 30.972 24.02 30.916C23.964 30.86 23.936 30.792 23.936 30.712V22.9C23.936 22.812 23.964 22.74 24.02 22.684C24.076 22.628 24.144 22.6 24.224 22.6H27.152C27.96 22.6 28.624 22.724 29.144 22.972C29.672 23.22 30.068 23.588 30.332 24.076C30.604 24.564 30.744 25.16 30.752 25.864C30.768 26.216 30.776 26.528 30.776 26.8C30.776 27.072 30.768 27.38 30.752 27.724C30.736 28.468 30.6 29.084 30.344 29.572C30.088 30.052 29.7 30.412 29.18 30.652C28.668 30.884 28.012 31 27.212 31H24.224ZM25.604 29.62H27.152C27.6 29.62 27.964 29.556 28.244 29.428C28.524 29.3 28.728 29.096 28.856 28.816C28.992 28.528 29.064 28.152 29.072 27.688C29.08 27.448 29.084 27.24 29.084 27.064C29.092 26.88 29.092 26.7 29.084 26.524C29.084 26.34 29.08 26.132 29.072 25.9C29.056 25.244 28.892 24.76 28.58 24.448C28.268 24.136 27.772 23.98 27.092 23.98H25.604V29.62ZM34.9895 31.12C34.3495 31.12 33.8095 31.008 33.3695 30.784C32.9375 30.56 32.6055 30.244 32.3735 29.836C32.1495 29.428 32.0215 28.952 31.9895 28.408C31.9815 28.264 31.9775 28.088 31.9775 27.88C31.9775 27.672 31.9815 27.496 31.9895 27.352C32.0215 26.8 32.1535 26.324 32.3855 25.924C32.6255 25.516 32.9615 25.2 33.3935 24.976C33.8335 24.752 34.3655 24.64 34.9895 24.64C35.6135 24.64 36.1415 24.752 36.5735 24.976C37.0135 25.2 37.3495 25.516 37.5815 25.924C37.8215 26.324 37.9575 26.8 37.9895 27.352C37.9975 27.496 38.0015 27.672 38.0015 27.88C38.0015 28.088 37.9975 28.264 37.9895 28.408C37.9575 28.952 37.8255 29.428 37.5935 29.836C37.3695 30.244 37.0375 30.56 36.5975 30.784C36.1655 31.008 35.6295 31.12 34.9895 31.12ZM34.9895 29.932C35.4135 29.932 35.7415 29.8 35.9735 29.536C36.2055 29.264 36.3335 28.868 36.3575 28.348C36.3655 28.228 36.3695 28.072 36.3695 27.88C36.3695 27.688 36.3655 27.532 36.3575 27.412C36.3335 26.9 36.2055 26.508 35.9735 26.236C35.7415 25.964 35.4135 25.828 34.9895 25.828C34.5655 25.828 34.2375 25.964 34.0055 26.236C33.7735 26.508 33.6455 26.9 33.6215 27.412C33.6135 27.532 33.6095 27.688 33.6095 27.88C33.6095 28.072 33.6135 28.228 33.6215 28.348C33.6455 28.868 33.7735 29.264 34.0055 29.536C34.2375 29.8 34.5655 29.932 34.9895 29.932ZM40.8593 31C40.7473 31 40.6633 30.972 40.6073 30.916C40.5513 30.86 40.5033 30.788 40.4633 30.7L38.7473 25.132C38.7393 25.092 38.7353 25.056 38.7353 25.024C38.7353 24.952 38.7593 24.892 38.8073 24.844C38.8633 24.788 38.9233 24.76 38.9873 24.76H39.8753C39.9713 24.76 40.0473 24.788 40.1033 24.844C40.1593 24.892 40.1913 24.94 40.1993 24.988L41.3753 28.96L42.6233 25.024C42.6393 24.968 42.6753 24.912 42.7313 24.856C42.7873 24.792 42.8713 24.76 42.9833 24.76H43.5833C43.6953 24.76 43.7793 24.792 43.8353 24.856C43.8913 24.912 43.9273 24.968 43.9433 25.024L45.1913 28.96L46.3673 24.988C46.3753 24.94 46.4033 24.892 46.4513 24.844C46.5073 24.788 46.5833 24.76 46.6793 24.76H47.5673C47.6393 24.76 47.6993 24.788 47.7473 24.844C47.8033 24.892 47.8313 24.952 47.8313 25.024C47.8313 25.056 47.8233 25.092 47.8073 25.132L46.0913 30.7C46.0673 30.788 46.0233 30.86 45.9593 30.916C45.9033 30.972 45.8193 31 45.7073 31H44.9273C44.8153 31 44.7273 30.972 44.6633 30.916C44.5993 30.86 44.5553 30.788 44.5313 30.7L43.2833 26.908L42.0353 30.7C42.0033 30.788 41.9553 30.86 41.8913 30.916C41.8353 30.972 41.7473 31 41.6273 31H40.8593ZM49.287 31C49.207 31 49.139 30.972 49.083 30.916C49.027 30.86 48.999 30.792 48.999 30.712V25.048C48.999 24.968 49.027 24.9 49.083 24.844C49.139 24.788 49.207 24.76 49.287 24.76H50.271C50.351 24.76 50.419 24.788 50.475 24.844C50.531 24.9 50.559 24.968 50.559 25.048V25.54C50.767 25.284 51.031 25.072 51.351 24.904C51.679 24.728 52.083 24.64 52.563 24.64C53.051 24.64 53.475 24.752 53.835 24.976C54.195 25.192 54.471 25.5 54.663 25.9C54.863 26.3 54.963 26.78 54.963 27.34V30.712C54.963 30.792 54.935 30.86 54.879 30.916C54.823 30.972 54.755 31 54.675 31H53.619C53.539 31 53.471 30.972 53.415 30.916C53.359 30.86 53.331 30.792 53.331 30.712V27.412C53.331 26.948 53.215 26.584 52.983 26.32C52.759 26.056 52.431 25.924 51.999 25.924C51.583 25.924 51.251 26.056 51.003 26.32C50.755 26.584 50.631 26.948 50.631 27.412V30.712C50.631 30.792 50.603 30.86 50.547 30.916C50.491 30.972 50.423 31 50.343 31H49.287ZM56.7873 31C56.7073 31 56.6393 30.972 56.5833 30.916C56.5273 30.86 56.4993 30.792 56.4993 30.712V22.768C56.4993 22.688 56.5273 22.62 56.5833 22.564C56.6393 22.508 56.7073 22.48 56.7873 22.48H57.7833C57.8633 22.48 57.9313 22.508 57.9873 22.564C58.0433 22.62 58.0713 22.688 58.0713 22.768V30.712C58.0713 30.792 58.0433 30.86 57.9873 30.916C57.9313 30.972 57.8633 31 57.7833 31H56.7873ZM62.4231 31.12C61.7831 31.12 61.2431 31.008 60.8031 30.784C60.3711 30.56 60.0391 30.244 59.8071 29.836C59.5831 29.428 59.4551 28.952 59.4231 28.408C59.4151 28.264 59.4111 28.088 59.4111 27.88C59.4111 27.672 59.4151 27.496 59.4231 27.352C59.4551 26.8 59.5871 26.324 59.8191 25.924C60.0591 25.516 60.3951 25.2 60.8271 24.976C61.2671 24.752 61.7991 24.64 62.4231 24.64C63.0471 24.64 63.5751 24.752 64.0071 24.976C64.4471 25.2 64.7831 25.516 65.0151 25.924C65.2551 26.324 65.3911 26.8 65.4231 27.352C65.4311 27.496 65.4351 27.672 65.4351 27.88C65.4351 28.088 65.4311 28.264 65.4231 28.408C65.3911 28.952 65.2591 29.428 65.0271 29.836C64.8031 30.244 64.4711 30.56 64.0311 30.784C63.5991 31.008 63.0631 31.12 62.4231 31.12ZM62.4231 29.932C62.8471 29.932 63.1751 29.8 63.4071 29.536C63.6391 29.264 63.7671 28.868 63.7911 28.348C63.7991 28.228 63.8031 28.072 63.8031 27.88C63.8031 27.688 63.7991 27.532 63.7911 27.412C63.7671 26.9 63.6391 26.508 63.4071 26.236C63.1751 25.964 62.8471 25.828 62.4231 25.828C61.9991 25.828 61.6711 25.964 61.4391 26.236C61.2071 26.508 61.0791 26.9 61.0551 27.412C61.0471 27.532 61.0431 27.688 61.0431 27.88C61.0431 28.072 61.0471 28.228 61.0551 28.348C61.0791 28.868 61.2071 29.264 61.4391 29.536C61.6711 29.8 61.9991 29.932 62.4231 29.932ZM68.5767 31.12C68.1607 31.12 67.7847 31.04 67.4487 30.88C67.1127 30.712 66.8447 30.492 66.6447 30.22C66.4527 29.94 66.3567 29.628 66.3567 29.284C66.3567 28.724 66.5807 28.28 67.0287 27.952C67.4847 27.616 68.0847 27.392 68.8287 27.28L70.4727 27.04V26.788C70.4727 26.452 70.3887 26.192 70.2207 26.008C70.0527 25.824 69.7647 25.732 69.3567 25.732C69.0687 25.732 68.8327 25.792 68.6487 25.912C68.4727 26.024 68.3407 26.176 68.2527 26.368C68.1887 26.472 68.0967 26.524 67.9767 26.524H67.0287C66.9407 26.524 66.8727 26.5 66.8247 26.452C66.7847 26.404 66.7647 26.34 66.7647 26.26C66.7727 26.132 66.8247 25.976 66.9207 25.792C67.0167 25.608 67.1687 25.432 67.3767 25.264C67.5847 25.088 67.8527 24.94 68.1807 24.82C68.5087 24.7 68.9047 24.64 69.3687 24.64C69.8727 24.64 70.2967 24.704 70.6407 24.832C70.9927 24.952 71.2727 25.116 71.4807 25.324C71.6887 25.532 71.8407 25.776 71.9367 26.056C72.0327 26.336 72.0807 26.632 72.0807 26.944V30.712C72.0807 30.792 72.0527 30.86 71.9967 30.916C71.9407 30.972 71.8727 31 71.7927 31H70.8207C70.7327 31 70.6607 30.972 70.6047 30.916C70.5567 30.86 70.5327 30.792 70.5327 30.712V30.244C70.4287 30.396 70.2887 30.54 70.1127 30.676C69.9367 30.804 69.7207 30.912 69.4647 31C69.2167 31.08 68.9207 31.12 68.5767 31.12ZM68.9847 29.98C69.2647 29.98 69.5167 29.92 69.7407 29.8C69.9727 29.68 70.1527 29.496 70.2807 29.248C70.4167 28.992 70.4847 28.672 70.4847 28.288V28.036L69.2847 28.228C68.8127 28.3 68.4607 28.416 68.2287 28.576C67.9967 28.736 67.8807 28.932 67.8807 29.164C67.8807 29.34 67.9327 29.492 68.0367 29.62C68.1487 29.74 68.2887 29.832 68.4567 29.896C68.6247 29.952 68.8007 29.98 68.9847 29.98ZM75.9361 31.12C75.5201 31.12 75.1521 31.052 74.8321 30.916C74.5201 30.772 74.2601 30.572 74.0521 30.316C73.8441 30.06 73.6841 29.76 73.5721 29.416C73.4601 29.064 73.3961 28.68 73.3801 28.264C73.3721 28.12 73.3681 27.992 73.3681 27.88C73.3681 27.76 73.3721 27.628 73.3801 27.484C73.3961 27.084 73.4561 26.712 73.5601 26.368C73.6721 26.024 73.8321 25.724 74.0401 25.468C74.2561 25.204 74.5201 25 74.8321 24.856C75.1521 24.712 75.5201 24.64 75.9361 24.64C76.3681 24.64 76.7321 24.716 77.0281 24.868C77.3321 25.012 77.5841 25.2 77.7841 25.432V22.768C77.7841 22.688 77.8081 22.62 77.8561 22.564C77.9121 22.508 77.9841 22.48 78.0721 22.48H79.0921C79.1721 22.48 79.2401 22.508 79.2961 22.564C79.3521 22.62 79.3801 22.688 79.3801 22.768V30.712C79.3801 30.792 79.3521 30.86 79.2961 30.916C79.2401 30.972 79.1721 31 79.0921 31H78.1441C78.0561 31 77.9841 30.972 77.9281 30.916C77.8801 30.86 77.8561 30.792 77.8561 30.712V30.268C77.6561 30.516 77.4001 30.72 77.0881 30.88C76.7841 31.04 76.4001 31.12 75.9361 31.12ZM76.3801 29.836C76.7161 29.836 76.9841 29.76 77.1841 29.608C77.3841 29.456 77.5321 29.264 77.6281 29.032C77.7241 28.792 77.7761 28.548 77.7841 28.3C77.7921 28.156 77.7961 28.004 77.7961 27.844C77.7961 27.676 77.7921 27.52 77.7841 27.376C77.7761 27.136 77.7201 26.908 77.6161 26.692C77.5121 26.468 77.3601 26.284 77.1601 26.14C76.9601 25.996 76.7001 25.924 76.3801 25.924C76.0441 25.924 75.7761 26 75.5761 26.152C75.3841 26.296 75.2441 26.488 75.1561 26.728C75.0681 26.968 75.0161 27.232 75.0001 27.52C74.9921 27.76 74.9921 28 75.0001 28.24C75.0161 28.528 75.0681 28.792 75.1561 29.032C75.2441 29.272 75.3841 29.468 75.5761 29.62C75.7761 29.764 76.0441 29.836 76.3801 29.836Z" fill="#222B88"/>
<defs>
<filter id="filter0_dii_13001_49744" x="0.5" y="0.5" width="110" height="110" filterUnits="userSpaceOnUse" color-interpolation-filters="sRGB">
<feFlood flood-opacity="0" result="BackgroundImageFix"/>
<feColorMatrix in="SourceAlpha" type="matrix" values="0 0 0 0 0 0 0 0 0 0 0 0 0 0 0 0 0 0 127 0" result="hardAlpha"/>
<feOffset dx="3.5" dy="3.5"/>
<feGaussianBlur stdDeviation="3.5"/>
<feComposite in2="hardAlpha" operator="out"/>
<feColorMatrix type="matrix" values="0 0 0 0 0.133333 0 0 0 0 0.168627 0 0 0 0 0.533333 0 0 0 0.4 0"/>
<feBlend mode="normal" in2="BackgroundImageFix" result="effect1_dropShadow_13001_49744"/>
<feBlend mode="normal" in="SourceGraphic" in2="effect1_dropShadow_13001_49744" result="shape"/>
<feColorMatrix in="SourceAlpha" type="matrix" values="0 0 0 0 0 0 0 0 0 0 0 0 0 0 0 0 0 0 127 0" result="hardAlpha"/>
<feOffset dx="1.7" dy="1.7"/>
<feGaussianBlur stdDeviation="3.5"/>
<feComposite in2="hardAlpha" operator="arithmetic" k2="-1" k3="1"/>
<feColorMatrix type="matrix" values="0 0 0 0 0.133333 0 0 0 0 0.168627 0 0 0 0 0.533333 0 0 0 0.2 0"/>
<feBlend mode="normal" in2="shape" result="effect2_innerShadow_13001_49744"/>
<feColorMatrix in="SourceAlpha" type="matrix" values="0 0 0 0 0 0 0 0 0 0 0 0 0 0 0 0 0 0 127 0" result="hardAlpha"/>
<feOffset dx="-3.5" dy="-3.5"/>
<feGaussianBlur stdDeviation="3.5"/>
<feComposite in2="hardAlpha" operator="arithmetic" k2="-1" k3="1"/>
<feColorMatrix type="matrix" values="0 0 0 0 0 0 0 0 0 0.156863 0 0 0 0 0.529412 0 0 0 0.2 0"/>
<feBlend mode="normal" in2="effect2_innerShadow_13001_49744" result="effect3_innerShadow_13001_49744"/>
</filter>
</defs>
</svg>
