<svg width="426" height="382" viewBox="0 0 426 382" fill="none" xmlns="http://www.w3.org/2000/svg">
<g clip-path="url(#clip0_12339_44616)">
<mask id="mask0_12339_44616" style="mask-type:luminance" maskUnits="userSpaceOnUse" x="0" y="0" width="426" height="290">
<path d="M426 0H0V290H426V0Z" fill="white"/>
</mask>
<g mask="url(#mask0_12339_44616)">
<mask id="mask1_12339_44616" style="mask-type:luminance" maskUnits="userSpaceOnUse" x="21" y="29" width="384" height="262">
<path d="M21.0996 29.1H404.5V290.1H21.0996V29.1Z" fill="white"/>
</mask>
<g mask="url(#mask1_12339_44616)">
<path d="M28.2996 125.4C32.2733 125.4 35.4996 128.626 35.4996 132.6C35.4996 136.574 32.2733 139.8 28.2996 139.8C24.3259 139.8 21.0996 136.574 21.0996 132.6C21.0996 128.626 24.3259 125.4 28.2996 125.4Z" fill="#B3C3C6"/>
<path d="M359.5 183C363.473 183 366.7 186.226 366.7 190.2C366.7 194.174 363.473 197.4 359.5 197.4C355.526 197.4 352.3 194.174 352.3 190.2C352.3 186.226 355.526 183 359.5 183Z" fill="#B3C3C6"/>
<path d="M296.5 30C300.473 30 303.7 33.2264 303.7 37.2C303.7 41.1737 300.473 44.4 296.5 44.4C292.526 44.4 289.3 41.1737 289.3 37.2C289.3 33.2264 292.526 30 296.5 30Z" stroke="#B3C1C6" stroke-width="1.8"/>
</g>
<mask id="mask2_12339_44616" style="mask-type:luminance" maskUnits="userSpaceOnUse" x="21" y="28" width="384" height="262">
<path d="M21.2998 28.9H404.7V289.9H21.2998V28.9Z" fill="white"/>
</mask>
<g mask="url(#mask2_12339_44616)">
<path d="M73.7335 56.3626C74.9683 50.5314 80.7054 46.7995 86.5366 48.0343C92.3678 49.2692 96.0997 55.0062 94.8649 60.8374C93.6301 66.6686 87.893 70.4006 82.0618 69.1657C76.2306 67.9309 72.4987 62.1939 73.7335 56.3626Z" stroke="#B3C1C6" stroke-width="1.8"/>
<path d="M41.401 202.933L57.3275 205.897L56.9982 207.667L41.0716 204.703L41.401 202.933ZM49.6321 198.057L51.4017 198.386L48.767 212.543L46.9974 212.214L49.6321 198.057Z" fill="#CAD4D6"/>
<path d="M391.668 130.893L401.939 118.366L403.331 119.507L393.06 132.034L391.668 130.893ZM391.361 121.331L392.502 119.939L403.638 129.069L402.497 130.461L391.361 121.331Z" fill="#CAD4D6"/>
<path d="M200.725 50.7546L216.621 53.8792L216.274 55.6454L200.378 52.5208L200.725 50.7546ZM209.005 45.9616L210.771 46.3088L207.994 60.4384L206.228 60.0912L209.005 45.9616Z" fill="#CAD4D6"/>
</g>
<mask id="mask3_12339_44616" style="mask-type:luminance" maskUnits="userSpaceOnUse" x="0" y="3" width="426" height="291">
<path d="M0 3.31958H426V293.32H0V3.31958Z" fill="white"/>
</mask>
<g mask="url(#mask3_12339_44616)">
<mask id="mask4_12339_44616" style="mask-type:luminance" maskUnits="userSpaceOnUse" x="0" y="3" width="426" height="291">
<path d="M0 3.31958H426V293.32H0V3.31958Z" fill="white"/>
</mask>
<g mask="url(#mask4_12339_44616)">
<path d="M231.771 176.122L263.38 207.731L246.094 225.017L214.485 193.408L231.771 176.122Z" fill="#D7D7D7"/>
<path d="M263.636 196.107L302.178 234.649C306.081 238.552 306.081 244.889 302.178 248.791L286.555 264.414C282.653 268.317 276.316 268.317 272.413 264.414L233.871 225.872C229.968 221.969 229.968 215.632 233.871 211.73L249.494 196.107C253.396 192.204 259.733 192.204 263.636 196.107Z" fill="#969696"/>
<path d="M236.839 190.619C261.576 165.749 261.55 125.407 236.796 100.51C212.042 75.6129 171.918 75.5998 147.191 100.47C122.455 125.34 122.471 165.682 147.234 190.569C171.988 215.466 212.103 215.49 236.839 190.619Z" fill="#DBDBDB"/>
<path d="M154.718 110.154C174.23 90.6426 205.929 90.658 225.459 110.188C244.99 129.719 245.005 161.418 225.493 180.929C205.982 200.441 174.283 200.425 154.753 180.895C135.222 161.364 135.207 129.666 154.718 110.154Z" fill="white"/>
</g>
<g opacity="0.92">
<path d="M175.544 131.934C177.997 131.934 179.989 135.73 179.989 140.405C179.989 145.08 177.997 148.876 175.544 148.876C173.091 148.876 171.1 145.08 171.1 140.405C171.1 135.73 173.091 131.934 175.544 131.934Z" fill="#575757"/>
</g>
<g opacity="0.92">
<path d="M203.582 131.934C206.035 131.934 208.027 135.73 208.027 140.405C208.027 145.08 206.035 148.876 203.582 148.876C201.129 148.876 199.138 145.08 199.138 140.405C199.138 135.73 201.129 131.934 203.582 131.934Z" fill="#575757"/>
</g>
<path d="M248 145.905C257.94 145.905 266 140.015 266 132.745C266 125.475 248 107.905 248 107.905C248 107.905 230 125.475 230 132.745C230 140.015 238.06 145.905 248 145.905Z" fill="url(#paint0_linear_12339_44616)"/>
<path d="M200.5 165.182C186.824 158.344 175.862 165.966 177.663 165.576C185.538 163.87 201.025 165.445 200.5 165.182Z" fill="#748394"/>
</g>
<path d="M185.526 266.5C194.4 266.5 201.606 267.985 201.606 269.815C201.606 271.645 194.4 273.131 185.526 273.131C176.652 273.131 169.446 271.645 169.446 269.815C169.446 267.985 176.652 266.5 185.526 266.5Z" fill="#D8DBDF"/>
</g>
</g>
<path d="M9.488 376.24C8.096 376.24 6.928 376.032 5.984 375.616C5.04 375.184 4.312 374.632 3.8 373.96C3.304 373.272 3.04 372.544 3.008 371.776C3.008 371.648 3.056 371.536 3.152 371.44C3.264 371.328 3.392 371.272 3.536 371.272H4.76C4.952 371.272 5.096 371.32 5.192 371.416C5.288 371.512 5.352 371.624 5.384 371.752C5.464 372.136 5.656 372.52 5.96 372.904C6.28 373.272 6.72 373.584 7.28 373.84C7.856 374.08 8.592 374.2 9.488 374.2C10.864 374.2 11.872 373.96 12.512 373.48C13.168 372.984 13.496 372.328 13.496 371.512C13.496 370.952 13.32 370.504 12.968 370.168C12.632 369.816 12.112 369.504 11.408 369.232C10.704 368.96 9.792 368.664 8.672 368.344C7.504 368.008 6.536 367.64 5.768 367.24C5 366.84 4.424 366.344 4.04 365.752C3.672 365.16 3.488 364.408 3.488 363.496C3.488 362.632 3.72 361.864 4.184 361.192C4.648 360.504 5.312 359.96 6.176 359.56C7.056 359.16 8.12 358.96 9.368 358.96C10.36 358.96 11.224 359.096 11.96 359.368C12.712 359.624 13.336 359.976 13.832 360.424C14.328 360.856 14.704 361.328 14.96 361.84C15.216 362.336 15.352 362.824 15.368 363.304C15.368 363.416 15.328 363.528 15.248 363.64C15.168 363.736 15.04 363.784 14.864 363.784H13.592C13.48 363.784 13.36 363.752 13.232 363.688C13.12 363.624 13.032 363.504 12.968 363.328C12.872 362.672 12.504 362.12 11.864 361.672C11.224 361.224 10.392 361 9.368 361C8.328 361 7.48 361.2 6.824 361.6C6.184 362 5.864 362.624 5.864 363.472C5.864 364.016 6.016 364.472 6.32 364.84C6.624 365.192 7.104 365.504 7.76 365.776C8.416 366.048 9.272 366.336 10.328 366.64C11.608 366.992 12.656 367.368 13.472 367.768C14.288 368.152 14.888 368.64 15.272 369.232C15.672 369.808 15.872 370.552 15.872 371.464C15.872 372.472 15.608 373.336 15.08 374.056C14.552 374.76 13.808 375.304 12.848 375.688C11.904 376.056 10.784 376.24 9.488 376.24ZM23.8177 376.24C22.6017 376.24 21.5857 376.008 20.7697 375.544C19.9537 375.08 19.3297 374.44 18.8977 373.624C18.4657 372.792 18.2257 371.848 18.1777 370.792C18.1617 370.52 18.1537 370.176 18.1537 369.76C18.1537 369.328 18.1617 368.984 18.1777 368.728C18.2257 367.656 18.4657 366.712 18.8977 365.896C19.3457 365.08 19.9777 364.44 20.7937 363.976C21.6097 363.512 22.6177 363.28 23.8177 363.28C25.0177 363.28 26.0257 363.512 26.8417 363.976C27.6577 364.44 28.2817 365.08 28.7137 365.896C29.1617 366.712 29.4097 367.656 29.4577 368.728C29.4737 368.984 29.4817 369.328 29.4817 369.76C29.4817 370.176 29.4737 370.52 29.4577 370.792C29.4097 371.848 29.1697 372.792 28.7377 373.624C28.3057 374.44 27.6817 375.08 26.8657 375.544C26.0497 376.008 25.0337 376.24 23.8177 376.24ZM23.8177 374.392C24.8097 374.392 25.6017 374.08 26.1937 373.456C26.7857 372.816 27.1057 371.888 27.1537 370.672C27.1697 370.432 27.1777 370.128 27.1777 369.76C27.1777 369.392 27.1697 369.088 27.1537 368.848C27.1057 367.632 26.7857 366.712 26.1937 366.088C25.6017 365.448 24.8097 365.128 23.8177 365.128C22.8257 365.128 22.0257 365.448 21.4177 366.088C20.8257 366.712 20.5137 367.632 20.4817 368.848C20.4657 369.088 20.4577 369.392 20.4577 369.76C20.4577 370.128 20.4657 370.432 20.4817 370.672C20.5137 371.888 20.8257 372.816 21.4177 373.456C22.0257 374.08 22.8257 374.392 23.8177 374.392ZM33.0389 376C32.8789 376 32.7429 375.952 32.6309 375.856C32.5349 375.744 32.4869 375.608 32.4869 375.448V364.096C32.4869 363.936 32.5349 363.8 32.6309 363.688C32.7429 363.576 32.8789 363.52 33.0389 363.52H34.1429C34.3029 363.52 34.4389 363.576 34.5509 363.688C34.6629 363.8 34.7189 363.936 34.7189 364.096V365.152C35.0389 364.608 35.4789 364.2 36.0389 363.928C36.5989 363.656 37.2709 363.52 38.0549 363.52H39.0149C39.1749 363.52 39.3029 363.576 39.3989 363.688C39.4949 363.784 39.5429 363.912 39.5429 364.072V365.056C39.5429 365.216 39.4949 365.344 39.3989 365.44C39.3029 365.536 39.1749 365.584 39.0149 365.584H37.5749C36.7109 365.584 36.0309 365.84 35.5349 366.352C35.0389 366.848 34.7909 367.528 34.7909 368.392V375.448C34.7909 375.608 34.7349 375.744 34.6229 375.856C34.5109 375.952 34.3749 376 34.2149 376H33.0389ZM42.1561 376C41.9961 376 41.8601 375.952 41.7481 375.856C41.6521 375.744 41.6041 375.608 41.6041 375.448V364.096C41.6041 363.936 41.6521 363.8 41.7481 363.688C41.8601 363.576 41.9961 363.52 42.1561 363.52H43.2601C43.4201 363.52 43.5561 363.576 43.6681 363.688C43.7801 363.8 43.8361 363.936 43.8361 364.096V365.152C44.1561 364.608 44.5961 364.2 45.1561 363.928C45.7161 363.656 46.3881 363.52 47.1721 363.52H48.1321C48.2921 363.52 48.4201 363.576 48.5161 363.688C48.6121 363.784 48.6601 363.912 48.6601 364.072V365.056C48.6601 365.216 48.6121 365.344 48.5161 365.44C48.4201 365.536 48.2921 365.584 48.1321 365.584H46.6921C45.8281 365.584 45.1481 365.84 44.6521 366.352C44.1561 366.848 43.9081 367.528 43.9081 368.392V375.448C43.9081 375.608 43.8521 375.744 43.7401 375.856C43.6281 375.952 43.4921 376 43.3321 376H42.1561ZM52.9053 380.56C52.7773 380.56 52.6653 380.512 52.5693 380.416C52.4733 380.32 52.4253 380.208 52.4253 380.08C52.4253 380.016 52.4333 379.952 52.4493 379.888C52.4653 379.824 52.4973 379.744 52.5453 379.648L54.3933 375.256L49.8093 364.432C49.7293 364.24 49.6893 364.104 49.6893 364.024C49.6893 363.88 49.7373 363.76 49.8333 363.664C49.9293 363.568 50.0493 363.52 50.1933 363.52H51.3693C51.5293 363.52 51.6573 363.56 51.7533 363.64C51.8493 363.72 51.9133 363.816 51.9453 363.928L55.5933 372.664L59.3373 363.928C59.3853 363.816 59.4493 363.72 59.5293 363.64C59.6253 363.56 59.7613 363.52 59.9373 363.52H61.0653C61.2093 363.52 61.3293 363.568 61.4253 363.664C61.5213 363.76 61.5693 363.872 61.5693 364C61.5693 364.08 61.5293 364.224 61.4493 364.432L54.6333 380.152C54.5853 380.264 54.5133 380.36 54.4173 380.44C54.3373 380.52 54.2093 380.56 54.0333 380.56H52.9053ZM62.4127 377.8C62.2847 377.8 62.1807 377.752 62.1007 377.656C62.0367 377.56 62.0127 377.44 62.0287 377.296L62.5807 373.864C62.6127 373.672 62.6767 373.512 62.7727 373.384C62.8847 373.24 63.0447 373.168 63.2527 373.168H64.8607C64.9727 373.168 65.0607 373.208 65.1247 373.288C65.2047 373.368 65.2447 373.464 65.2447 373.576C65.2447 373.704 65.2127 373.832 65.1487 373.96L63.9007 377.248C63.8367 377.408 63.7487 377.536 63.6367 377.632C63.5407 377.744 63.3967 377.8 63.2047 377.8H62.4127ZM75.9678 380.56C75.8398 380.56 75.7278 380.512 75.6318 380.416C75.5358 380.32 75.4878 380.208 75.4878 380.08C75.4878 380.016 75.4958 379.952 75.5118 379.888C75.5278 379.824 75.5598 379.744 75.6078 379.648L77.4558 375.256L72.8718 364.432C72.7918 364.24 72.7518 364.104 72.7518 364.024C72.7518 363.88 72.7998 363.76 72.8958 363.664C72.9918 363.568 73.1118 363.52 73.2558 363.52H74.4318C74.5918 363.52 74.7198 363.56 74.8158 363.64C74.9118 363.72 74.9758 363.816 75.0078 363.928L78.6558 372.664L82.3998 363.928C82.4478 363.816 82.5118 363.72 82.5918 363.64C82.6878 363.56 82.8238 363.52 82.9998 363.52H84.1278C84.2718 363.52 84.3918 363.568 84.4878 363.664C84.5838 363.76 84.6318 363.872 84.6318 364C84.6318 364.08 84.5918 364.224 84.5118 364.432L77.6958 380.152C77.6478 380.264 77.5758 380.36 77.4798 380.44C77.3998 380.52 77.2718 380.56 77.0958 380.56H75.9678ZM91.6927 376.24C90.4767 376.24 89.4607 376.008 88.6447 375.544C87.8287 375.08 87.2047 374.44 86.7727 373.624C86.3407 372.792 86.1007 371.848 86.0527 370.792C86.0367 370.52 86.0287 370.176 86.0287 369.76C86.0287 369.328 86.0367 368.984 86.0527 368.728C86.1007 367.656 86.3407 366.712 86.7727 365.896C87.2207 365.08 87.8527 364.44 88.6687 363.976C89.4847 363.512 90.4927 363.28 91.6927 363.28C92.8927 363.28 93.9007 363.512 94.7167 363.976C95.5327 364.44 96.1567 365.08 96.5887 365.896C97.0367 366.712 97.2847 367.656 97.3327 368.728C97.3487 368.984 97.3567 369.328 97.3567 369.76C97.3567 370.176 97.3487 370.52 97.3327 370.792C97.2847 371.848 97.0447 372.792 96.6127 373.624C96.1807 374.44 95.5567 375.08 94.7407 375.544C93.9247 376.008 92.9087 376.24 91.6927 376.24ZM91.6927 374.392C92.6847 374.392 93.4767 374.08 94.0687 373.456C94.6607 372.816 94.9807 371.888 95.0287 370.672C95.0447 370.432 95.0527 370.128 95.0527 369.76C95.0527 369.392 95.0447 369.088 95.0287 368.848C94.9807 367.632 94.6607 366.712 94.0687 366.088C93.4767 365.448 92.6847 365.128 91.6927 365.128C90.7007 365.128 89.9007 365.448 89.2927 366.088C88.7007 366.712 88.3887 367.632 88.3567 368.848C88.3407 369.088 88.3327 369.392 88.3327 369.76C88.3327 370.128 88.3407 370.432 88.3567 370.672C88.3887 371.888 88.7007 372.816 89.2927 373.456C89.9007 374.08 90.7007 374.392 91.6927 374.392ZM105.018 376.24C103.994 376.24 103.122 376.016 102.402 375.568C101.698 375.104 101.162 374.464 100.794 373.648C100.426 372.832 100.242 371.896 100.242 370.84V364.072C100.242 363.912 100.29 363.784 100.386 363.688C100.498 363.576 100.634 363.52 100.794 363.52H101.994C102.154 363.52 102.282 363.576 102.378 363.688C102.49 363.784 102.546 363.912 102.546 364.072V370.72C102.546 373.104 103.586 374.296 105.666 374.296C106.658 374.296 107.45 373.984 108.042 373.36C108.65 372.72 108.954 371.84 108.954 370.72V364.072C108.954 363.912 109.002 363.784 109.098 363.688C109.21 363.576 109.346 363.52 109.506 363.52H110.682C110.858 363.52 110.994 363.576 111.09 363.688C111.186 363.784 111.234 363.912 111.234 364.072V375.448C111.234 375.608 111.186 375.744 111.09 375.856C110.994 375.952 110.858 376 110.682 376H109.578C109.418 376 109.282 375.952 109.17 375.856C109.074 375.744 109.026 375.608 109.026 375.448V374.392C108.594 374.952 108.066 375.4 107.442 375.736C106.834 376.072 106.026 376.24 105.018 376.24ZM115.351 376C115.191 376 115.055 375.952 114.943 375.856C114.847 375.744 114.799 375.608 114.799 375.448V364.096C114.799 363.936 114.847 363.8 114.943 363.688C115.055 363.576 115.191 363.52 115.351 363.52H116.455C116.615 363.52 116.751 363.576 116.863 363.688C116.975 363.8 117.031 363.936 117.031 364.096V365.152C117.351 364.608 117.791 364.2 118.351 363.928C118.911 363.656 119.583 363.52 120.367 363.52H121.327C121.487 363.52 121.615 363.576 121.711 363.688C121.807 363.784 121.855 363.912 121.855 364.072V365.056C121.855 365.216 121.807 365.344 121.711 365.44C121.615 365.536 121.487 365.584 121.327 365.584H119.887C119.023 365.584 118.343 365.84 117.847 366.352C117.351 366.848 117.103 367.528 117.103 368.392V375.448C117.103 375.608 117.047 375.744 116.935 375.856C116.823 375.952 116.687 376 116.527 376H115.351ZM133.557 376.24C132.661 376.24 131.893 376.128 131.253 375.904C130.613 375.68 130.093 375.408 129.693 375.088C129.293 374.768 128.989 374.448 128.781 374.128C128.589 373.808 128.485 373.552 128.469 373.36C128.453 373.184 128.509 373.048 128.637 372.952C128.765 372.856 128.893 372.808 129.021 372.808H130.077C130.173 372.808 130.245 372.824 130.293 372.856C130.357 372.872 130.437 372.936 130.533 373.048C130.741 373.272 130.973 373.496 131.229 373.72C131.485 373.944 131.797 374.128 132.165 374.272C132.549 374.416 133.021 374.488 133.581 374.488C134.397 374.488 135.069 374.336 135.597 374.032C136.125 373.712 136.389 373.248 136.389 372.64C136.389 372.24 136.277 371.92 136.053 371.68C135.845 371.44 135.461 371.224 134.901 371.032C134.357 370.84 133.605 370.64 132.645 370.432C131.685 370.208 130.925 369.936 130.365 369.616C129.805 369.28 129.405 368.888 129.165 368.44C128.925 367.976 128.805 367.456 128.805 366.88C128.805 366.288 128.981 365.72 129.333 365.176C129.685 364.616 130.197 364.16 130.869 363.808C131.557 363.456 132.413 363.28 133.437 363.28C134.269 363.28 134.981 363.384 135.573 363.592C136.165 363.8 136.653 364.064 137.037 364.384C137.421 364.688 137.709 364.992 137.901 365.296C138.093 365.6 138.197 365.856 138.213 366.064C138.229 366.224 138.181 366.36 138.069 366.472C137.957 366.568 137.829 366.616 137.685 366.616H136.677C136.565 366.616 136.469 366.592 136.389 366.544C136.325 366.496 136.261 366.44 136.197 366.376C136.037 366.168 135.845 365.96 135.621 365.752C135.413 365.544 135.133 365.376 134.781 365.248C134.445 365.104 133.997 365.032 133.437 365.032C132.637 365.032 132.037 365.2 131.637 365.536C131.237 365.872 131.037 366.296 131.037 366.808C131.037 367.112 131.125 367.384 131.301 367.624C131.477 367.864 131.813 368.08 132.309 368.272C132.805 368.464 133.541 368.672 134.517 368.896C135.573 369.104 136.405 369.384 137.013 369.736C137.621 370.088 138.053 370.496 138.309 370.96C138.565 371.424 138.693 371.96 138.693 372.568C138.693 373.24 138.493 373.856 138.093 374.416C137.709 374.976 137.133 375.424 136.365 375.76C135.613 376.08 134.677 376.24 133.557 376.24ZM146.439 376.24C144.791 376.24 143.479 375.736 142.503 374.728C141.527 373.704 140.991 372.312 140.895 370.552C140.879 370.344 140.871 370.08 140.871 369.76C140.871 369.424 140.879 369.152 140.895 368.944C140.959 367.808 141.223 366.816 141.687 365.968C142.151 365.104 142.783 364.44 143.583 363.976C144.399 363.512 145.351 363.28 146.439 363.28C147.655 363.28 148.671 363.536 149.487 364.048C150.319 364.56 150.951 365.288 151.383 366.232C151.815 367.176 152.031 368.28 152.031 369.544V369.952C152.031 370.128 151.975 370.264 151.863 370.36C151.767 370.456 151.639 370.504 151.479 370.504H143.175C143.175 370.52 143.175 370.552 143.175 370.6C143.175 370.648 143.175 370.688 143.175 370.72C143.207 371.376 143.351 371.992 143.607 372.568C143.863 373.128 144.231 373.584 144.711 373.936C145.191 374.288 145.767 374.464 146.439 374.464C147.015 374.464 147.495 374.376 147.879 374.2C148.263 374.024 148.575 373.832 148.815 373.624C149.055 373.4 149.215 373.232 149.295 373.12C149.439 372.912 149.551 372.792 149.631 372.76C149.711 372.712 149.839 372.688 150.015 372.688H151.167C151.327 372.688 151.455 372.736 151.551 372.832C151.663 372.912 151.711 373.032 151.695 373.192C151.679 373.432 151.551 373.728 151.311 374.08C151.071 374.416 150.727 374.752 150.279 375.088C149.831 375.424 149.287 375.704 148.647 375.928C148.007 376.136 147.271 376.24 146.439 376.24ZM143.175 368.848H149.751V368.776C149.751 368.056 149.615 367.416 149.343 366.856C149.087 366.296 148.711 365.856 148.215 365.536C147.719 365.2 147.127 365.032 146.439 365.032C145.751 365.032 145.159 365.2 144.663 365.536C144.183 365.856 143.815 366.296 143.559 366.856C143.303 367.416 143.175 368.056 143.175 368.776V368.848ZM158.381 376.24C157.581 376.24 156.853 376.08 156.197 375.76C155.541 375.44 155.013 375.008 154.613 374.464C154.213 373.92 154.013 373.304 154.013 372.616C154.013 371.512 154.461 370.632 155.357 369.976C156.253 369.32 157.421 368.888 158.861 368.68L162.437 368.176V367.48C162.437 366.712 162.213 366.112 161.765 365.68C161.333 365.248 160.621 365.032 159.629 365.032C158.909 365.032 158.325 365.176 157.877 365.464C157.445 365.752 157.141 366.12 156.965 366.568C156.869 366.808 156.701 366.928 156.461 366.928H155.381C155.205 366.928 155.069 366.88 154.973 366.784C154.893 366.672 154.853 366.544 154.853 366.4C154.853 366.16 154.941 365.864 155.117 365.512C155.309 365.16 155.597 364.816 155.981 364.48C156.365 364.144 156.853 363.864 157.445 363.64C158.053 363.4 158.789 363.28 159.653 363.28C160.613 363.28 161.421 363.408 162.077 363.664C162.733 363.904 163.245 364.232 163.613 364.648C163.997 365.064 164.269 365.536 164.429 366.064C164.605 366.592 164.693 367.128 164.693 367.672V375.448C164.693 375.608 164.637 375.744 164.525 375.856C164.429 375.952 164.301 376 164.141 376H163.037C162.861 376 162.725 375.952 162.629 375.856C162.533 375.744 162.485 375.608 162.485 375.448V374.416C162.277 374.704 161.997 374.992 161.645 375.28C161.293 375.552 160.853 375.784 160.325 375.976C159.797 376.152 159.149 376.24 158.381 376.24ZM158.885 374.44C159.541 374.44 160.141 374.304 160.685 374.032C161.229 373.744 161.653 373.304 161.957 372.712C162.277 372.12 162.437 371.376 162.437 370.48V369.808L159.653 370.216C158.517 370.376 157.661 370.648 157.085 371.032C156.509 371.4 156.221 371.872 156.221 372.448C156.221 372.896 156.349 373.272 156.605 373.576C156.877 373.864 157.213 374.08 157.613 374.224C158.029 374.368 158.453 374.44 158.885 374.44ZM168.695 376C168.535 376 168.399 375.952 168.287 375.856C168.191 375.744 168.143 375.608 168.143 375.448V364.096C168.143 363.936 168.191 363.8 168.287 363.688C168.399 363.576 168.535 363.52 168.695 363.52H169.799C169.959 363.52 170.095 363.576 170.207 363.688C170.319 363.8 170.375 363.936 170.375 364.096V365.152C170.695 364.608 171.135 364.2 171.695 363.928C172.255 363.656 172.927 363.52 173.711 363.52H174.671C174.831 363.52 174.959 363.576 175.055 363.688C175.151 363.784 175.199 363.912 175.199 364.072V365.056C175.199 365.216 175.151 365.344 175.055 365.44C174.959 365.536 174.831 365.584 174.671 365.584H173.231C172.367 365.584 171.687 365.84 171.191 366.352C170.695 366.848 170.447 367.528 170.447 368.392V375.448C170.447 375.608 170.391 375.744 170.279 375.856C170.167 375.952 170.031 376 169.871 376H168.695ZM182.066 376.24C180.93 376.24 179.946 376.024 179.114 375.592C178.298 375.144 177.666 374.512 177.218 373.696C176.77 372.864 176.53 371.872 176.498 370.72C176.482 370.48 176.474 370.16 176.474 369.76C176.474 369.36 176.482 369.04 176.498 368.8C176.53 367.648 176.77 366.664 177.218 365.848C177.666 365.016 178.298 364.384 179.114 363.952C179.946 363.504 180.93 363.28 182.066 363.28C182.994 363.28 183.786 363.408 184.442 363.664C185.114 363.92 185.666 364.248 186.098 364.648C186.53 365.048 186.85 365.48 187.058 365.944C187.282 366.408 187.402 366.848 187.418 367.264C187.434 367.424 187.386 367.552 187.274 367.648C187.162 367.744 187.026 367.792 186.866 367.792H185.714C185.554 367.792 185.434 367.76 185.354 367.696C185.274 367.616 185.194 367.488 185.114 367.312C184.826 366.528 184.434 365.976 183.938 365.656C183.442 365.336 182.826 365.176 182.09 365.176C181.13 365.176 180.346 365.472 179.738 366.064C179.146 366.656 178.826 367.608 178.778 368.92C178.762 369.496 178.762 370.056 178.778 370.6C178.826 371.928 179.146 372.888 179.738 373.48C180.346 374.056 181.13 374.344 182.09 374.344C182.826 374.344 183.442 374.184 183.938 373.864C184.434 373.544 184.826 372.992 185.114 372.208C185.194 372.032 185.274 371.912 185.354 371.848C185.434 371.768 185.554 371.728 185.714 371.728H186.866C187.026 371.728 187.162 371.776 187.274 371.872C187.386 371.968 187.434 372.096 187.418 372.256C187.402 372.592 187.33 372.936 187.202 373.288C187.074 373.64 186.866 374 186.578 374.368C186.306 374.72 185.962 375.04 185.546 375.328C185.13 375.6 184.626 375.824 184.034 376C183.458 376.16 182.802 376.24 182.066 376.24ZM190.844 376C190.684 376 190.548 375.952 190.436 375.856C190.34 375.744 190.292 375.608 190.292 375.448V359.512C190.292 359.352 190.34 359.224 190.436 359.128C190.548 359.016 190.684 358.96 190.844 358.96H192.044C192.22 358.96 192.356 359.016 192.452 359.128C192.548 359.224 192.596 359.352 192.596 359.512V365.104C193.028 364.56 193.556 364.12 194.18 363.784C194.804 363.448 195.596 363.28 196.556 363.28C197.596 363.28 198.476 363.512 199.196 363.976C199.932 364.424 200.484 365.056 200.852 365.872C201.236 366.672 201.428 367.608 201.428 368.68V375.448C201.428 375.608 201.38 375.744 201.284 375.856C201.188 375.952 201.052 376 200.876 376H199.676C199.516 376 199.38 375.952 199.268 375.856C199.172 375.744 199.124 375.608 199.124 375.448V368.8C199.124 367.68 198.852 366.808 198.308 366.184C197.764 365.544 196.964 365.224 195.908 365.224C194.916 365.224 194.116 365.544 193.508 366.184C192.9 366.808 192.596 367.68 192.596 368.8V375.448C192.596 375.608 192.548 375.744 192.452 375.856C192.356 375.952 192.22 376 192.044 376H190.844ZM211.328 376C211.168 376 211.032 375.952 210.92 375.856C210.824 375.744 210.776 375.608 210.776 375.448V364.072C210.776 363.912 210.824 363.784 210.92 363.688C211.032 363.576 211.168 363.52 211.328 363.52H212.48C212.64 363.52 212.768 363.576 212.864 363.688C212.96 363.784 213.008 363.912 213.008 364.072V375.448C213.008 375.608 212.96 375.744 212.864 375.856C212.768 375.952 212.64 376 212.48 376H211.328ZM211.136 361.192C210.976 361.192 210.84 361.144 210.728 361.048C210.632 360.936 210.584 360.8 210.584 360.64V359.344C210.584 359.184 210.632 359.056 210.728 358.96C210.84 358.848 210.976 358.792 211.136 358.792H212.648C212.808 358.792 212.936 358.848 213.032 358.96C213.144 359.056 213.2 359.184 213.2 359.344V360.64C213.2 360.8 213.144 360.936 213.032 361.048C212.936 361.144 212.808 361.192 212.648 361.192H211.136ZM221.461 376C220.565 376 219.837 375.832 219.277 375.496C218.717 375.144 218.309 374.656 218.053 374.032C217.797 373.392 217.669 372.64 217.669 371.776V365.44H215.797C215.637 365.44 215.501 365.392 215.389 365.296C215.293 365.184 215.245 365.048 215.245 364.888V364.072C215.245 363.912 215.293 363.784 215.389 363.688C215.501 363.576 215.637 363.52 215.797 363.52H217.669V359.512C217.669 359.352 217.717 359.224 217.812 359.128C217.924 359.016 218.061 358.96 218.221 358.96H219.349C219.509 358.96 219.637 359.016 219.733 359.128C219.845 359.224 219.901 359.352 219.901 359.512V363.52H222.877C223.037 363.52 223.165 363.576 223.261 363.688C223.373 363.784 223.429 363.912 223.429 364.072V364.888C223.429 365.048 223.373 365.184 223.261 365.296C223.165 365.392 223.037 365.44 222.877 365.44H219.901V371.608C219.901 372.36 220.029 372.952 220.285 373.384C220.541 373.816 220.997 374.032 221.653 374.032H223.117C223.277 374.032 223.405 374.088 223.501 374.2C223.613 374.296 223.669 374.424 223.669 374.584V375.448C223.669 375.608 223.613 375.744 223.501 375.856C223.405 375.952 223.277 376 223.117 376H221.461ZM230.932 376.24C229.284 376.24 227.972 375.736 226.996 374.728C226.02 373.704 225.484 372.312 225.388 370.552C225.372 370.344 225.364 370.08 225.364 369.76C225.364 369.424 225.372 369.152 225.388 368.944C225.452 367.808 225.716 366.816 226.18 365.968C226.644 365.104 227.276 364.44 228.076 363.976C228.892 363.512 229.844 363.28 230.932 363.28C232.148 363.28 233.164 363.536 233.98 364.048C234.812 364.56 235.444 365.288 235.876 366.232C236.308 367.176 236.523 368.28 236.523 369.544V369.952C236.523 370.128 236.468 370.264 236.356 370.36C236.26 370.456 236.132 370.504 235.972 370.504H227.668C227.668 370.52 227.668 370.552 227.668 370.6C227.668 370.648 227.668 370.688 227.668 370.72C227.7 371.376 227.844 371.992 228.1 372.568C228.356 373.128 228.724 373.584 229.204 373.936C229.684 374.288 230.26 374.464 230.932 374.464C231.508 374.464 231.988 374.376 232.372 374.2C232.756 374.024 233.068 373.832 233.308 373.624C233.548 373.4 233.708 373.232 233.788 373.12C233.932 372.912 234.044 372.792 234.124 372.76C234.204 372.712 234.332 372.688 234.508 372.688H235.66C235.82 372.688 235.948 372.736 236.044 372.832C236.156 372.912 236.204 373.032 236.188 373.192C236.172 373.432 236.044 373.728 235.804 374.08C235.564 374.416 235.22 374.752 234.772 375.088C234.324 375.424 233.78 375.704 233.14 375.928C232.5 376.136 231.764 376.24 230.932 376.24ZM227.668 368.848H234.244V368.776C234.244 368.056 234.108 367.416 233.836 366.856C233.58 366.296 233.204 365.856 232.708 365.536C232.212 365.2 231.62 365.032 230.932 365.032C230.244 365.032 229.652 365.2 229.156 365.536C228.676 365.856 228.308 366.296 228.052 366.856C227.796 367.416 227.668 368.056 227.668 368.776V368.848ZM239.945 376C239.785 376 239.649 375.952 239.537 375.856C239.441 375.744 239.393 375.608 239.393 375.448V364.072C239.393 363.912 239.441 363.784 239.537 363.688C239.649 363.576 239.785 363.52 239.945 363.52H241.025C241.185 363.52 241.313 363.576 241.409 363.688C241.521 363.784 241.577 363.912 241.577 364.072V364.912C241.945 364.416 242.409 364.024 242.969 363.736C243.529 363.432 244.201 363.28 244.985 363.28C246.793 363.264 248.073 364 248.825 365.488C249.193 364.816 249.729 364.28 250.433 363.88C251.137 363.48 251.937 363.28 252.833 363.28C253.665 363.28 254.417 363.472 255.089 363.856C255.777 364.24 256.313 364.824 256.697 365.608C257.097 366.376 257.297 367.344 257.297 368.512V375.448C257.297 375.608 257.241 375.744 257.129 375.856C257.033 375.952 256.905 376 256.745 376H255.617C255.457 376 255.321 375.952 255.209 375.856C255.113 375.744 255.065 375.608 255.065 375.448V368.728C255.065 367.832 254.937 367.128 254.681 366.616C254.425 366.104 254.081 365.744 253.649 365.536C253.217 365.328 252.745 365.224 252.233 365.224C251.817 365.224 251.393 365.328 250.961 365.536C250.529 365.744 250.169 366.104 249.881 366.616C249.609 367.128 249.473 367.832 249.473 368.728V375.448C249.473 375.608 249.417 375.744 249.305 375.856C249.209 375.952 249.081 376 248.921 376H247.793C247.633 376 247.497 375.952 247.385 375.856C247.289 375.744 247.241 375.608 247.241 375.448V368.728C247.241 367.832 247.105 367.128 246.833 366.616C246.561 366.104 246.209 365.744 245.777 365.536C245.345 365.328 244.889 365.224 244.409 365.224C243.993 365.224 243.569 365.328 243.137 365.536C242.705 365.744 242.345 366.104 242.057 366.616C241.785 367.128 241.649 367.824 241.649 368.704V375.448C241.649 375.608 241.593 375.744 241.481 375.856C241.385 375.952 241.257 376 241.097 376H239.945ZM269.354 376C269.146 376 268.986 375.952 268.874 375.856C268.762 375.744 268.666 375.592 268.586 375.4L265.178 364.264C265.146 364.184 265.13 364.104 265.13 364.024C265.13 363.88 265.178 363.76 265.274 363.664C265.386 363.568 265.506 363.52 265.634 363.52H266.69C266.866 363.52 267.002 363.568 267.098 363.664C267.194 363.76 267.258 363.848 267.29 363.928L269.954 372.976L272.81 364.024C272.842 363.912 272.906 363.8 273.002 363.688C273.114 363.576 273.274 363.52 273.482 363.52H274.298C274.506 363.52 274.666 363.576 274.778 363.688C274.89 363.8 274.954 363.912 274.97 364.024L277.826 372.976L280.49 363.928C280.506 363.848 280.562 363.76 280.658 363.664C280.754 363.568 280.89 363.52 281.066 363.52H282.122C282.266 363.52 282.386 363.568 282.482 363.664C282.578 363.76 282.626 363.88 282.626 364.024C282.626 364.104 282.61 364.184 282.578 364.264L279.17 375.4C279.122 375.592 279.034 375.744 278.906 375.856C278.794 375.952 278.626 376 278.402 376H277.466C277.258 376 277.082 375.952 276.938 375.856C276.81 375.744 276.722 375.592 276.674 375.4L273.89 366.808L271.106 375.4C271.042 375.592 270.946 375.744 270.818 375.856C270.69 375.952 270.514 376 270.29 376H269.354ZM288.412 376.24C287.612 376.24 286.884 376.08 286.228 375.76C285.572 375.44 285.044 375.008 284.644 374.464C284.244 373.92 284.044 373.304 284.044 372.616C284.044 371.512 284.492 370.632 285.388 369.976C286.284 369.32 287.452 368.888 288.892 368.68L292.468 368.176V367.48C292.468 366.712 292.244 366.112 291.796 365.68C291.364 365.248 290.652 365.032 289.66 365.032C288.94 365.032 288.356 365.176 287.908 365.464C287.476 365.752 287.172 366.12 286.996 366.568C286.9 366.808 286.732 366.928 286.492 366.928H285.412C285.236 366.928 285.1 366.88 285.004 366.784C284.924 366.672 284.884 366.544 284.884 366.4C284.884 366.16 284.972 365.864 285.148 365.512C285.34 365.16 285.628 364.816 286.012 364.48C286.396 364.144 286.884 363.864 287.476 363.64C288.084 363.4 288.82 363.28 289.684 363.28C290.644 363.28 291.452 363.408 292.108 363.664C292.764 363.904 293.276 364.232 293.644 364.648C294.028 365.064 294.3 365.536 294.46 366.064C294.636 366.592 294.724 367.128 294.724 367.672V375.448C294.724 375.608 294.668 375.744 294.556 375.856C294.46 375.952 294.332 376 294.172 376H293.068C292.892 376 292.756 375.952 292.66 375.856C292.564 375.744 292.516 375.608 292.516 375.448V374.416C292.308 374.704 292.028 374.992 291.676 375.28C291.324 375.552 290.884 375.784 290.356 375.976C289.828 376.152 289.18 376.24 288.412 376.24ZM288.916 374.44C289.572 374.44 290.172 374.304 290.716 374.032C291.26 373.744 291.684 373.304 291.988 372.712C292.308 372.12 292.468 371.376 292.468 370.48V369.808L289.684 370.216C288.548 370.376 287.692 370.648 287.116 371.032C286.54 371.4 286.252 371.872 286.252 372.448C286.252 372.896 286.38 373.272 286.636 373.576C286.908 373.864 287.244 374.08 287.644 374.224C288.06 374.368 288.484 374.44 288.916 374.44ZM302.494 376.24C301.598 376.24 300.83 376.128 300.19 375.904C299.55 375.68 299.03 375.408 298.63 375.088C298.23 374.768 297.926 374.448 297.718 374.128C297.526 373.808 297.422 373.552 297.406 373.36C297.39 373.184 297.446 373.048 297.574 372.952C297.702 372.856 297.83 372.808 297.958 372.808H299.014C299.11 372.808 299.182 372.824 299.23 372.856C299.294 372.872 299.374 372.936 299.47 373.048C299.678 373.272 299.91 373.496 300.166 373.72C300.422 373.944 300.734 374.128 301.102 374.272C301.486 374.416 301.958 374.488 302.518 374.488C303.334 374.488 304.006 374.336 304.534 374.032C305.062 373.712 305.326 373.248 305.326 372.64C305.326 372.24 305.214 371.92 304.99 371.68C304.782 371.44 304.398 371.224 303.838 371.032C303.294 370.84 302.542 370.64 301.582 370.432C300.622 370.208 299.862 369.936 299.302 369.616C298.742 369.28 298.342 368.888 298.102 368.44C297.862 367.976 297.742 367.456 297.742 366.88C297.742 366.288 297.918 365.72 298.27 365.176C298.622 364.616 299.134 364.16 299.806 363.808C300.494 363.456 301.35 363.28 302.374 363.28C303.206 363.28 303.918 363.384 304.51 363.592C305.102 363.8 305.59 364.064 305.974 364.384C306.358 364.688 306.646 364.992 306.838 365.296C307.03 365.6 307.134 365.856 307.15 366.064C307.166 366.224 307.118 366.36 307.006 366.472C306.894 366.568 306.766 366.616 306.622 366.616H305.614C305.502 366.616 305.406 366.592 305.326 366.544C305.262 366.496 305.198 366.44 305.134 366.376C304.974 366.168 304.782 365.96 304.558 365.752C304.35 365.544 304.07 365.376 303.718 365.248C303.382 365.104 302.934 365.032 302.374 365.032C301.574 365.032 300.974 365.2 300.574 365.536C300.174 365.872 299.974 366.296 299.974 366.808C299.974 367.112 300.062 367.384 300.238 367.624C300.414 367.864 300.75 368.08 301.246 368.272C301.742 368.464 302.478 368.672 303.454 368.896C304.51 369.104 305.342 369.384 305.95 369.736C306.558 370.088 306.99 370.496 307.246 370.96C307.502 371.424 307.63 371.96 307.63 372.568C307.63 373.24 307.43 373.856 307.03 374.416C306.646 374.976 306.07 375.424 305.302 375.76C304.55 376.08 303.614 376.24 302.494 376.24ZM316.844 376C316.684 376 316.548 375.952 316.436 375.856C316.34 375.744 316.292 375.608 316.292 375.448V364.072C316.292 363.912 316.34 363.784 316.436 363.688C316.548 363.576 316.684 363.52 316.844 363.52H317.972C318.132 363.52 318.26 363.576 318.356 363.688C318.468 363.784 318.524 363.912 318.524 364.072V365.128C318.94 364.584 319.46 364.144 320.084 363.808C320.724 363.456 321.54 363.28 322.532 363.28C323.572 363.28 324.452 363.512 325.172 363.976C325.908 364.424 326.46 365.056 326.828 365.872C327.196 366.672 327.38 367.608 327.38 368.68V375.448C327.38 375.608 327.332 375.744 327.236 375.856C327.14 375.952 327.012 376 326.852 376H325.652C325.492 376 325.356 375.952 325.244 375.856C325.148 375.744 325.1 375.608 325.1 375.448V368.8C325.1 367.68 324.828 366.808 324.284 366.184C323.74 365.544 322.94 365.224 321.884 365.224C320.892 365.224 320.092 365.544 319.484 366.184C318.892 366.808 318.596 367.68 318.596 368.8V375.448C318.596 375.608 318.54 375.744 318.428 375.856C318.332 375.952 318.204 376 318.044 376H316.844ZM335.958 376.24C334.742 376.24 333.726 376.008 332.91 375.544C332.094 375.08 331.47 374.44 331.038 373.624C330.606 372.792 330.366 371.848 330.318 370.792C330.302 370.52 330.294 370.176 330.294 369.76C330.294 369.328 330.302 368.984 330.318 368.728C330.366 367.656 330.606 366.712 331.038 365.896C331.486 365.08 332.118 364.44 332.934 363.976C333.75 363.512 334.758 363.28 335.958 363.28C337.158 363.28 338.166 363.512 338.982 363.976C339.798 364.44 340.422 365.08 340.854 365.896C341.302 366.712 341.55 367.656 341.598 368.728C341.614 368.984 341.622 369.328 341.622 369.76C341.622 370.176 341.614 370.52 341.598 370.792C341.55 371.848 341.31 372.792 340.878 373.624C340.446 374.44 339.822 375.08 339.006 375.544C338.19 376.008 337.174 376.24 335.958 376.24ZM335.958 374.392C336.95 374.392 337.742 374.08 338.334 373.456C338.926 372.816 339.246 371.888 339.294 370.672C339.31 370.432 339.318 370.128 339.318 369.76C339.318 369.392 339.31 369.088 339.294 368.848C339.246 367.632 338.926 366.712 338.334 366.088C337.742 365.448 336.95 365.128 335.958 365.128C334.966 365.128 334.166 365.448 333.558 366.088C332.966 366.712 332.654 367.632 332.622 368.848C332.606 369.088 332.598 369.392 332.598 369.76C332.598 370.128 332.606 370.432 332.622 370.672C332.654 371.888 332.966 372.816 333.558 373.456C334.166 374.08 334.966 374.392 335.958 374.392ZM349.382 376C348.486 376 347.758 375.832 347.198 375.496C346.638 375.144 346.23 374.656 345.974 374.032C345.718 373.392 345.59 372.64 345.59 371.776V365.44H343.718C343.558 365.44 343.422 365.392 343.31 365.296C343.214 365.184 343.166 365.048 343.166 364.888V364.072C343.166 363.912 343.214 363.784 343.31 363.688C343.422 363.576 343.558 363.52 343.718 363.52H345.59V359.512C345.59 359.352 345.638 359.224 345.734 359.128C345.846 359.016 345.982 358.96 346.142 358.96H347.27C347.43 358.96 347.558 359.016 347.654 359.128C347.766 359.224 347.822 359.352 347.822 359.512V363.52H350.798C350.958 363.52 351.086 363.576 351.182 363.688C351.294 363.784 351.35 363.912 351.35 364.072V364.888C351.35 365.048 351.294 365.184 351.182 365.296C351.086 365.392 350.958 365.44 350.798 365.44H347.822V371.608C347.822 372.36 347.95 372.952 348.206 373.384C348.462 373.816 348.918 374.032 349.574 374.032H351.038C351.198 374.032 351.326 374.088 351.422 374.2C351.534 374.296 351.59 374.424 351.59 374.584V375.448C351.59 375.608 351.534 375.744 351.422 375.856C351.326 375.952 351.198 376 351.038 376H349.382ZM361.123 376C360.963 376 360.827 375.952 360.715 375.856C360.619 375.744 360.571 375.608 360.571 375.448V365.44H358.531C358.371 365.44 358.235 365.392 358.123 365.296C358.027 365.184 357.979 365.048 357.979 364.888V364.072C357.979 363.912 358.027 363.784 358.123 363.688C358.235 363.576 358.371 363.52 358.531 363.52H360.571V362.32C360.571 361.504 360.707 360.792 360.979 360.184C361.251 359.56 361.683 359.08 362.275 358.744C362.883 358.408 363.691 358.24 364.699 358.24H366.139C366.299 358.24 366.427 358.296 366.523 358.408C366.619 358.504 366.667 358.632 366.667 358.792V359.608C366.667 359.768 366.619 359.904 366.523 360.016C366.427 360.112 366.299 360.16 366.139 360.16H364.747C363.995 360.16 363.483 360.36 363.211 360.76C362.939 361.144 362.803 361.704 362.803 362.44V363.52H365.899C366.059 363.52 366.187 363.576 366.283 363.688C366.379 363.784 366.427 363.912 366.427 364.072V364.888C366.427 365.048 366.379 365.184 366.283 365.296C366.187 365.392 366.059 365.44 365.899 365.44H362.803V375.448C362.803 375.608 362.747 375.744 362.635 375.856C362.539 375.952 362.411 376 362.251 376H361.123ZM373.435 376.24C372.219 376.24 371.203 376.008 370.387 375.544C369.571 375.08 368.947 374.44 368.515 373.624C368.083 372.792 367.843 371.848 367.795 370.792C367.779 370.52 367.771 370.176 367.771 369.76C367.771 369.328 367.779 368.984 367.795 368.728C367.843 367.656 368.083 366.712 368.515 365.896C368.963 365.08 369.595 364.44 370.411 363.976C371.227 363.512 372.235 363.28 373.435 363.28C374.635 363.28 375.643 363.512 376.459 363.976C377.275 364.44 377.899 365.08 378.331 365.896C378.779 366.712 379.027 367.656 379.075 368.728C379.091 368.984 379.099 369.328 379.099 369.76C379.099 370.176 379.091 370.52 379.075 370.792C379.027 371.848 378.787 372.792 378.355 373.624C377.923 374.44 377.299 375.08 376.483 375.544C375.667 376.008 374.651 376.24 373.435 376.24ZM373.435 374.392C374.427 374.392 375.219 374.08 375.811 373.456C376.403 372.816 376.723 371.888 376.771 370.672C376.787 370.432 376.795 370.128 376.795 369.76C376.795 369.392 376.787 369.088 376.771 368.848C376.723 367.632 376.403 366.712 375.811 366.088C375.219 365.448 374.427 365.128 373.435 365.128C372.443 365.128 371.643 365.448 371.035 366.088C370.443 366.712 370.131 367.632 370.099 368.848C370.083 369.088 370.075 369.392 370.075 369.76C370.075 370.128 370.083 370.432 370.099 370.672C370.131 371.888 370.443 372.816 371.035 373.456C371.643 374.08 372.443 374.392 373.435 374.392ZM386.76 376.24C385.736 376.24 384.864 376.016 384.144 375.568C383.44 375.104 382.904 374.464 382.536 373.648C382.168 372.832 381.984 371.896 381.984 370.84V364.072C381.984 363.912 382.032 363.784 382.128 363.688C382.24 363.576 382.376 363.52 382.536 363.52H383.736C383.896 363.52 384.024 363.576 384.12 363.688C384.232 363.784 384.288 363.912 384.288 364.072V370.72C384.288 373.104 385.328 374.296 387.408 374.296C388.4 374.296 389.192 373.984 389.784 373.36C390.392 372.72 390.696 371.84 390.696 370.72V364.072C390.696 363.912 390.744 363.784 390.84 363.688C390.952 363.576 391.088 363.52 391.248 363.52H392.424C392.6 363.52 392.736 363.576 392.832 363.688C392.928 363.784 392.976 363.912 392.976 364.072V375.448C392.976 375.608 392.928 375.744 392.832 375.856C392.736 375.952 392.6 376 392.424 376H391.32C391.16 376 391.024 375.952 390.912 375.856C390.816 375.744 390.768 375.608 390.768 375.448V374.392C390.336 374.952 389.808 375.4 389.184 375.736C388.576 376.072 387.768 376.24 386.76 376.24ZM397.094 376C396.934 376 396.798 375.952 396.686 375.856C396.59 375.744 396.542 375.608 396.542 375.448V364.072C396.542 363.912 396.59 363.784 396.686 363.688C396.798 363.576 396.934 363.52 397.094 363.52H398.222C398.382 363.52 398.51 363.576 398.606 363.688C398.718 363.784 398.774 363.912 398.774 364.072V365.128C399.19 364.584 399.71 364.144 400.334 363.808C400.974 363.456 401.79 363.28 402.782 363.28C403.822 363.28 404.702 363.512 405.422 363.976C406.158 364.424 406.71 365.056 407.078 365.872C407.446 366.672 407.63 367.608 407.63 368.68V375.448C407.63 375.608 407.582 375.744 407.486 375.856C407.39 375.952 407.262 376 407.102 376H405.902C405.742 376 405.606 375.952 405.494 375.856C405.398 375.744 405.35 375.608 405.35 375.448V368.8C405.35 367.68 405.078 366.808 404.534 366.184C403.99 365.544 403.19 365.224 402.134 365.224C401.142 365.224 400.342 365.544 399.734 366.184C399.142 366.808 398.846 367.68 398.846 368.8V375.448C398.846 375.608 398.79 375.744 398.678 375.856C398.582 375.952 398.454 376 398.294 376H397.094ZM415.656 376.24C414.776 376.24 414.016 376.088 413.376 375.784C412.736 375.464 412.208 375.04 411.792 374.512C411.392 373.968 411.088 373.352 410.88 372.664C410.688 371.976 410.576 371.248 410.544 370.48C410.528 370.224 410.52 369.984 410.52 369.76C410.52 369.536 410.528 369.296 410.544 369.04C410.576 368.288 410.688 367.568 410.88 366.88C411.088 366.192 411.392 365.576 411.792 365.032C412.208 364.488 412.736 364.064 413.376 363.76C414.016 363.44 414.776 363.28 415.656 363.28C416.6 363.28 417.384 363.448 418.008 363.784C418.632 364.12 419.144 364.536 419.544 365.032V359.512C419.544 359.352 419.592 359.224 419.688 359.128C419.8 359.016 419.936 358.96 420.096 358.96H421.248C421.408 358.96 421.536 359.016 421.632 359.128C421.744 359.224 421.8 359.352 421.8 359.512V375.448C421.8 375.608 421.744 375.744 421.632 375.856C421.536 375.952 421.408 376 421.248 376H420.168C419.992 376 419.856 375.952 419.76 375.856C419.664 375.744 419.616 375.608 419.616 375.448V374.44C419.216 374.952 418.696 375.384 418.056 375.736C417.416 376.072 416.616 376.24 415.656 376.24ZM416.16 374.296C416.96 374.296 417.6 374.112 418.08 373.744C418.56 373.376 418.92 372.912 419.16 372.352C419.4 371.776 419.528 371.192 419.544 370.6C419.56 370.344 419.568 370.04 419.568 369.688C419.568 369.32 419.56 369.008 419.544 368.752C419.528 368.192 419.392 367.64 419.136 367.096C418.896 366.552 418.528 366.104 418.032 365.752C417.552 365.4 416.928 365.224 416.16 365.224C415.344 365.224 414.696 365.408 414.216 365.776C413.736 366.128 413.392 366.6 413.184 367.192C412.976 367.768 412.856 368.392 412.824 369.064C412.808 369.528 412.808 369.992 412.824 370.456C412.856 371.128 412.976 371.76 413.184 372.352C413.392 372.928 413.736 373.4 414.216 373.768C414.696 374.12 415.344 374.296 416.16 374.296Z" fill="#7E7E96"/>
<defs>
<linearGradient id="paint0_linear_12339_44616" x1="248.019" y1="117.669" x2="258.208" y2="145.905" gradientUnits="userSpaceOnUse">
<stop stop-color="#B0F9FF"/>
<stop offset="0.5" stop-color="#B6F3FE"/>
<stop offset="1" stop-color="#BCEEFD"/>
</linearGradient>
<clipPath id="clip0_12339_44616">
<rect width="426" height="290" fill="white"/>
</clipPath>
</defs>
</svg>
