<svg width="24" height="24" viewBox="0 0 24 24" fill="none" xmlns="http://www.w3.org/2000/svg">
<path d="M13.2922 16.9904L10.5847 19.6972C8.84772 21.4334 6.03748 21.4334 4.30124 19.6972C3.46125 18.8587 3 17.7427 3 16.5562C3 15.3697 3.46125 14.2537 4.30049 13.4144L7.94997 9.76571C9.71621 7.99947 12.5354 8.06922 14.2327 9.76571C14.5724 10.1055 14.8402 10.4955 15.0494 10.911L13.8547 12.105C13.7197 11.6452 13.4797 11.2132 13.1317 10.866C12.0457 9.77996 10.1842 9.73347 9.05247 10.8652L9.05172 10.8667L5.40149 14.5154C4.27649 15.6397 4.27649 17.4712 5.40149 18.5954C6.53923 19.7332 8.36997 19.7114 9.48297 18.5954L11.3017 16.7774C12.0465 16.9904 12.6449 17.0287 13.2922 16.9904ZM13.4129 4.30199L10.7325 6.98398C11.3677 6.94648 11.9737 6.98398 12.7222 7.19623L14.5169 5.40449C15.6404 4.27799 17.4719 4.27949 18.5969 5.40374C19.7347 6.54223 19.7114 8.37297 18.5969 9.48522L14.9737 13.1084L14.9714 13.1099C13.8929 14.1877 12.057 14.2739 10.8922 13.1084C10.5375 12.7529 10.3035 12.327 10.1752 11.8762L10.1122 11.9272L8.97447 13.0634C9.18447 13.4804 9.45072 13.8697 9.79046 14.2094C11.4742 15.8932 14.2934 15.9899 16.0739 14.2094L19.6979 10.5862C21.4334 8.84922 21.4349 6.03973 19.6972 4.30349C17.9594 2.56275 15.1469 2.56875 13.4129 4.30199Z" fill="#263238"/>
</svg>
