<svg width="64" height="63" viewBox="0 0 64 63" fill="none" xmlns="http://www.w3.org/2000/svg">
<path d="M62.9825 15.2218C63.1774 14.9701 63.293 14.6697 63.3148 14.3576C63.3367 14.0456 63.2638 13.7358 63.1054 13.4665C62.947 13.1972 62.7099 12.9804 62.4235 12.8428C62.1372 12.7053 61.8142 12.6531 61.4945 12.6927L10.323 19.0265C9.87229 19.0824 9.44413 19.2578 9.08562 19.5333C8.72712 19.8088 8.45216 20.1738 8.291 20.5881C8.12985 21.0024 8.08876 21.45 8.17224 21.8816C8.25573 22.3131 8.46056 22.7119 8.76418 23.0341L21.7933 36.8543L24.5303 45.5153C24.6635 45.9105 24.9519 46.2367 25.3335 46.4236C25.7151 46.6105 26.1595 46.6432 26.5711 46.5148C26.9828 46.3864 27.3288 46.107 27.5349 45.7368C27.741 45.3665 27.7907 44.9349 27.6733 44.5347L25.213 36.7519L55.5196 19.5946L45.3615 32.7186C45.2253 32.8869 45.1246 33.0794 45.0654 33.2848C45.0061 33.4902 44.9895 33.7043 45.0164 33.9147C45.0433 34.125 45.1133 34.3272 45.2222 34.5096C45.3311 34.692 45.4767 34.8508 45.6506 34.9768C45.8244 35.1027 46.023 35.1933 46.2346 35.2431C46.4462 35.293 46.6667 35.3011 46.8831 35.2671C47.0994 35.233 47.3073 35.1575 47.4946 35.0448C47.6819 34.9322 47.8448 34.7848 47.9737 34.6112L62.9825 15.2218ZM53.9011 16.8437L23.5945 34.001L12.2769 21.9947L53.9011 16.8437Z" fill="#162082"/>
<path d="M52.9466 51.6955C52.1329 54.5609 50.186 57.0139 47.5342 58.515C44.8825 60.0161 41.743 60.4423 38.8064 59.6998C35.8699 58.9574 33.3769 57.1071 31.8758 54.556C30.3747 52.0049 29.9885 48.962 30.8022 46.0967C31.6159 43.2314 33.5627 40.7783 36.2145 39.2772C38.8663 37.7761 42.0058 37.3499 44.9423 38.0924C47.8788 38.8348 50.3718 40.6851 51.8729 43.2362C53.374 45.7873 53.7602 48.8302 52.9466 51.6955ZM48.1135 44.9188C47.9648 44.7695 47.7869 44.6506 47.5898 44.5689C47.3928 44.4873 47.1804 44.4444 46.9649 44.4427C46.7493 44.4411 46.5349 44.4807 46.3337 44.5593C46.1326 44.638 45.9487 44.7541 45.7926 44.901L40.382 49.9844L39.1311 47.8584C38.9163 47.4935 38.5597 47.2289 38.1397 47.1227C37.7197 47.0165 37.2706 47.0774 36.8913 47.2922C36.512 47.5069 36.2335 47.8577 36.1171 48.2676C36.0008 48.6774 36.056 49.1127 36.2707 49.4776L38.0417 52.4827C38.2258 52.7963 38.4818 53.0638 38.7903 53.2648C39.0987 53.4659 39.4515 53.5951 39.8217 53.6428C40.192 53.6905 40.57 53.6553 40.927 53.54C41.2839 53.4247 41.6105 53.2322 41.8818 52.9773L48.0563 47.1739C48.2125 47.027 48.3378 46.8521 48.4252 46.6593C48.5126 46.4664 48.5604 46.2594 48.5657 46.05C48.571 45.8406 48.5338 45.6329 48.4562 45.4388C48.3786 45.2447 48.2621 45.068 48.1135 44.9188Z" fill="#162082"/>
</svg>
